<svg id="ig" xmlns="http://www.w3.org/2000/svg" width="33.771" height="33.771" viewBox="0 0 33.771 33.771">
  <path id="Path_3" data-name="Path 3" d="M24.451,0H9.319A9.33,9.33,0,0,0,0,9.32V24.452a9.33,9.33,0,0,0,9.319,9.32H24.451a9.33,9.33,0,0,0,9.32-9.32V9.32A9.33,9.33,0,0,0,24.451,0Zm6.324,24.452a6.331,6.331,0,0,1-6.324,6.323H9.319A6.33,6.33,0,0,1,3,24.452V9.32A6.33,6.33,0,0,1,9.319,3H24.451A6.331,6.331,0,0,1,30.775,9.32V24.452Z" fill="#2cc698"/>
  <path id="Path_4" data-name="Path 4" d="M49.67,40.97a8.7,8.7,0,1,0,8.7,8.7A8.712,8.712,0,0,0,49.67,40.97Zm0,14.407a5.705,5.705,0,1,1,5.706-5.705A5.712,5.712,0,0,1,49.67,55.377Z" transform="translate(-32.784 -32.786)" fill="#2cc698"/>
  <path id="Path_5" data-name="Path 5" d="M121.118,28.251a2.2,2.2,0,1,0,1.554.643A2.206,2.206,0,0,0,121.118,28.251Z" transform="translate(-95.166 -22.608)" fill="#2cc698"/>
</svg>
